<?xml version="1.0" encoding="UTF-8" standalone="no"?>
<!DOCTYPE svg PUBLIC "-//W3C//DTD SVG 1.1//EN"
 "http://www.w3.org/Graphics/SVG/1.1/DTD/svg11.dtd">
<!-- Generated by graphviz version 2.43.0 (0)
 -->
<!-- Title: %3 Pages: 1 -->
<svg width="145pt" height="120pt"
 viewBox="0.00 0.00 145.00 120.00" xmlns="http://www.w3.org/2000/svg" xmlns:xlink="http://www.w3.org/1999/xlink">
<g id="graph0" class="graph" transform="scale(1 1) rotate(0) translate(4 116)">
<title>%3</title>
<polygon fill="white" stroke="transparent" points="-4,4 -4,-116 141,-116 141,4 -4,4"/>
<!-- notebook -->
<g id="node1" class="node">
<title>notebook</title>
<polygon fill="none" stroke="black" points="137,-112 0,-112 0,-74 137,-74 137,-112"/>
<text text-anchor="middle" x="68.5" y="-96.8" font-family="Gill Sans" font-size="14.00">Jupyter Notebook</text>
<text text-anchor="middle" x="68.5" y="-81.8" font-family="Gill Sans" font-size="14.00">in de browser</text>
</g>
<!-- kernel -->
<g id="node2" class="node">
<title>kernel</title>
<polygon fill="none" stroke="black" points="124,-38 13,-38 13,0 124,0 124,-38"/>
<text text-anchor="middle" x="68.5" y="-22.8" font-family="Gill Sans" font-size="14.00">Python kernel</text>
<text text-anchor="middle" x="68.5" y="-7.8" font-family="Gill Sans" font-size="14.00">op de server</text>
</g>
<!-- notebook&#45;&gt;kernel -->
<g id="edge1" class="edge">
<title>notebook&#45;&gt;kernel</title>
<path fill="none" stroke="black" d="M62.55,-73.83C61.8,-66.13 61.58,-56.97 61.88,-48.42"/>
<polygon fill="black" stroke="black" points="65.38,-48.62 62.52,-38.41 58.39,-48.17 65.38,-48.62"/>
</g>
<!-- kernel&#45;&gt;notebook -->
<g id="edge2" class="edge">
<title>kernel&#45;&gt;notebook</title>
<path fill="none" stroke="black" d="M74.48,-38.41C75.21,-46.06 75.42,-55.11 75.12,-63.57"/>
<polygon fill="black" stroke="black" points="71.6,-63.63 74.45,-73.83 78.59,-64.08 71.6,-63.63"/>
</g>
</g>
</svg>
