<?xml version="1.0" encoding="UTF-8" standalone="no"?>
<!DOCTYPE svg PUBLIC "-//W3C//DTD SVG 1.1//EN"
 "http://www.w3.org/Graphics/SVG/1.1/DTD/svg11.dtd">
<!-- Generated by graphviz version 2.43.0 (0)
 -->
<!-- Title: G Pages: 1 -->
<svg width="481pt" height="206pt"
 viewBox="0.00 0.00 481.08 206.00" xmlns="http://www.w3.org/2000/svg" xmlns:xlink="http://www.w3.org/1999/xlink">
<g id="graph0" class="graph" transform="scale(1 1) rotate(0) translate(4 202)">
<title>G</title>
<polygon fill="white" stroke="transparent" points="-4,4 -4,-202 477.08,-202 477.08,4 -4,4"/>
<!-- mdfile -->
<g id="node1" class="node">
<title>mdfile</title>
<polygon fill="none" stroke="black" points="126,-198 0,-198 0,-162 126,-162 126,-198"/>
<text text-anchor="middle" x="63" y="-176.3" font-family="Times,serif" font-size="14.00">Markdown files</text>
</g>
<!-- jbook -->
<g id="node5" class="node">
<title>jbook</title>
<ellipse fill="none" stroke="black" cx="208.15" cy="-99" rx="46.29" ry="18"/>
<text text-anchor="middle" x="208.15" y="-95.3" font-family="Times,serif" font-size="14.00">jb build</text>
</g>
<!-- mdfile&#45;&gt;jbook -->
<g id="edge1" class="edge">
<title>mdfile&#45;&gt;jbook</title>
<path fill="none" stroke="black" d="M108.16,-161.92C114.23,-159.1 120.33,-156.09 126,-153 143.64,-143.39 162.37,-131.08 177.38,-120.64"/>
<polygon fill="black" stroke="black" points="179.59,-123.37 185.76,-114.75 175.56,-117.64 179.59,-123.37"/>
</g>
<!-- jnfile -->
<g id="node2" class="node">
<title>jnfile</title>
<polygon fill="none" stroke="black" points="122.5,-144 3.5,-144 3.5,-108 122.5,-108 122.5,-144"/>
<text text-anchor="middle" x="63" y="-122.3" font-family="Times,serif" font-size="14.00">Notebook files</text>
</g>
<!-- jnfile&#45;&gt;jbook -->
<g id="edge4" class="edge">
<title>jnfile&#45;&gt;jbook</title>
<path fill="none" stroke="black" d="M122.64,-114.94C133.75,-112.84 145.3,-110.67 156.16,-108.62"/>
<polygon fill="black" stroke="black" points="157.14,-111.99 166.32,-106.7 155.84,-105.11 157.14,-111.99"/>
</g>
<!-- toc -->
<g id="node3" class="node">
<title>toc</title>
<polygon fill="none" stroke="black" points="98.5,-90 27.5,-90 27.5,-54 98.5,-54 98.5,-90"/>
<text text-anchor="middle" x="63" y="-68.3" font-family="Times,serif" font-size="14.00">_toc file</text>
</g>
<!-- toc&#45;&gt;jbook -->
<g id="edge5" class="edge">
<title>toc&#45;&gt;jbook</title>
<path fill="none" stroke="black" d="M98.65,-78.54C115.91,-81.79 137.1,-85.79 156.17,-89.38"/>
<polygon fill="black" stroke="black" points="155.73,-92.86 166.2,-91.28 157.03,-85.98 155.73,-92.86"/>
</g>
<!-- config -->
<g id="node4" class="node">
<title>config</title>
<polygon fill="none" stroke="black" points="109,-36 17,-36 17,0 109,0 109,-36"/>
<text text-anchor="middle" x="63" y="-14.3" font-family="Times,serif" font-size="14.00">_config file</text>
</g>
<!-- config&#45;&gt;jbook -->
<g id="edge6" class="edge">
<title>config&#45;&gt;jbook</title>
<path fill="none" stroke="black" d="M108.16,-36.08C114.23,-38.9 120.33,-41.91 126,-45 143.64,-54.61 162.37,-66.92 177.38,-77.36"/>
<polygon fill="black" stroke="black" points="175.56,-80.36 185.76,-83.25 179.59,-74.63 175.56,-80.36"/>
</g>
<!-- sphinx -->
<g id="node6" class="node">
<title>sphinx</title>
<ellipse fill="none" stroke="black" cx="333.19" cy="-99" rx="42.79" ry="18"/>
<text text-anchor="middle" x="333.19" y="-95.3" font-family="Times,serif" font-size="14.00">Sphinx</text>
</g>
<!-- jbook&#45;&gt;sphinx -->
<g id="edge2" class="edge">
<title>jbook&#45;&gt;sphinx</title>
<path fill="none" stroke="black" d="M254.61,-99C262.89,-99 271.58,-99 280.03,-99"/>
<polygon fill="black" stroke="black" points="280.17,-102.5 290.17,-99 280.17,-95.5 280.17,-102.5"/>
</g>
<!-- HTML -->
<g id="node7" class="node">
<title>HTML</title>
<polygon fill="none" stroke="black" points="473.08,-144 412.08,-144 412.08,-108 473.08,-108 473.08,-144"/>
<text text-anchor="middle" x="442.58" y="-122.3" font-family="Times,serif" font-size="14.00">HTML</text>
</g>
<!-- sphinx&#45;&gt;HTML -->
<g id="edge3" class="edge">
<title>sphinx&#45;&gt;HTML</title>
<path fill="none" stroke="black" d="M370.25,-108.07C380.5,-110.64 391.72,-113.46 402.16,-116.09"/>
<polygon fill="black" stroke="black" points="401.32,-119.49 411.87,-118.53 403.03,-112.7 401.32,-119.49"/>
</g>
<!-- PDF -->
<g id="node8" class="node">
<title>PDF</title>
<polygon fill="none" stroke="black" points="469.58,-90 415.58,-90 415.58,-54 469.58,-54 469.58,-90"/>
<text text-anchor="middle" x="442.58" y="-68.3" font-family="Times,serif" font-size="14.00">PDF</text>
</g>
<!-- sphinx&#45;&gt;PDF -->
<g id="edge7" class="edge">
<title>sphinx&#45;&gt;PDF</title>
<path fill="none" stroke="black" d="M370.25,-89.93C381.54,-87.1 394,-83.96 405.3,-81.12"/>
<polygon fill="black" stroke="black" points="406.45,-84.44 415.3,-78.61 404.74,-77.65 406.45,-84.44"/>
</g>
</g>
</svg>
