<?xml version="1.0" encoding="UTF-8" standalone="no"?>
<!DOCTYPE svg PUBLIC "-//W3C//DTD SVG 1.1//EN"
 "http://www.w3.org/Graphics/SVG/1.1/DTD/svg11.dtd">
<!-- Generated by graphviz version 2.43.0 (0)
 -->
<!-- Title: %3 Pages: 1 -->
<svg width="224pt" height="224pt"
 viewBox="0.00 0.00 224.04 224.00" xmlns="http://www.w3.org/2000/svg" xmlns:xlink="http://www.w3.org/1999/xlink">
<g id="graph0" class="graph" transform="scale(1 1) rotate(0) translate(4 220)">
<title>%3</title>
<polygon fill="white" stroke="transparent" points="-4,4 -4,-220 220.04,-220 220.04,4 -4,4"/>
<!-- ghk -->
<g id="node1" class="node">
<title>ghk</title>
<polygon fill="none" stroke="black" points="114.04,-216 5.04,-216 5.04,-178 114.04,-178 114.04,-216"/>
<text text-anchor="middle" x="59.54" y="-200.8" font-family="Gill Sans" font-size="14.00">GitHub</text>
<text text-anchor="middle" x="59.54" y="-185.8" font-family="Gill Sans" font-size="14.00">keuzethemas</text>
</g>
<!-- ghh -->
<g id="node2" class="node">
<title>ghh</title>
<polygon fill="none" stroke="black" points="92.04,-127 27.04,-127 27.04,-89 92.04,-89 92.04,-127"/>
<text text-anchor="middle" x="59.54" y="-111.8" font-family="Gill Sans" font-size="14.00">GitHub</text>
<text text-anchor="middle" x="59.54" y="-96.8" font-family="Gill Sans" font-size="14.00">hans</text>
</g>
<!-- ghk&#45;&gt;ghh -->
<g id="edge1" class="edge">
<title>ghk&#45;&gt;ghh</title>
<path fill="none" stroke="black" d="M36.09,-177.99C31,-172.8 26.31,-166.7 23.54,-160 19.94,-151.32 22.91,-142.68 28.4,-135.03"/>
<polygon fill="black" stroke="black" points="31.29,-137.04 35.16,-127.18 25.99,-132.47 31.29,-137.04"/>
<text text-anchor="middle" x="49.04" y="-148.8" font-family="Gill Sans" font-size="14.00"> fork &#160;&#160;&#160;</text>
</g>
<!-- ghh&#45;&gt;ghk -->
<g id="edge2" class="edge">
<title>ghh&#45;&gt;ghk</title>
<path fill="none" stroke="black" d="M68.77,-127.24C71.13,-132.8 73.34,-139.02 74.54,-145 76.05,-152.59 74.97,-160.68 72.82,-168.13"/>
<polygon fill="black" stroke="black" points="69.44,-167.19 69.38,-177.78 76.03,-169.54 69.44,-167.19"/>
<text text-anchor="middle" x="124.04" y="-148.8" font-family="Gill Sans" font-size="14.00"> &#160;pull request*</text>
</g>
<!-- ghh&#45;&gt;ghh -->
<g id="edge3" class="edge">
<title>ghh&#45;&gt;ghh</title>
<path fill="none" stroke="black" d="M92.08,-116.24C102.14,-116.08 110.04,-113.33 110.04,-108 110.04,-104.67 106.95,-102.35 102.18,-101.03"/>
<polygon fill="black" stroke="black" points="102.44,-97.54 92.08,-99.76 101.56,-104.48 102.44,-97.54"/>
<text text-anchor="middle" x="163.04" y="-104.3" font-family="Gill Sans" font-size="14.00"> &#160;create branch</text>
</g>
<!-- jhh -->
<g id="node3" class="node">
<title>jhh</title>
<polygon fill="none" stroke="black" points="109.54,-38 9.54,-38 9.54,0 109.54,0 109.54,-38"/>
<text text-anchor="middle" x="59.54" y="-22.8" font-family="Gill Sans" font-size="14.00">Jupyter Hub</text>
<text text-anchor="middle" x="59.54" y="-7.8" font-family="Gill Sans" font-size="14.00">hans</text>
</g>
<!-- ghh&#45;&gt;jhh -->
<g id="edge4" class="edge">
<title>ghh&#45;&gt;jhh</title>
<path fill="none" stroke="black" d="M26.93,-93.92C17.33,-88.36 7.96,-80.84 2.54,-71 -3.02,-60.92 1.73,-51.81 10.44,-44.18"/>
<polygon fill="black" stroke="black" points="12.62,-46.91 18.54,-38.13 8.44,-41.3 12.62,-46.91"/>
<text text-anchor="middle" x="49.04" y="-59.8" font-family="Gill Sans" font-size="14.00">clone/fetch* &#160;</text>
</g>
<!-- jhh&#45;&gt;ghh -->
<g id="edge6" class="edge">
<title>jhh&#45;&gt;ghh</title>
<path fill="none" stroke="black" d="M83.91,-38.18C93.16,-47.43 100.43,-59.18 95.54,-71 94.02,-74.66 91.93,-78.15 89.51,-81.4"/>
<polygon fill="black" stroke="black" points="86.85,-79.13 82.98,-88.99 92.15,-83.7 86.85,-79.13"/>
<text text-anchor="middle" x="122.04" y="-59.8" font-family="Gill Sans" font-size="14.00"> &#160;push*</text>
</g>
<!-- jhh&#45;&gt;jhh -->
<g id="edge5" class="edge">
<title>jhh&#45;&gt;jhh</title>
<path fill="none" stroke="black" d="M109.65,-26.96C120.05,-26.12 127.54,-23.47 127.54,-19 127.54,-16.14 124.47,-14.02 119.52,-12.65"/>
<polygon fill="black" stroke="black" points="120.08,-9.19 109.65,-11.04 118.96,-16.1 120.08,-9.19"/>
<text text-anchor="middle" x="158.04" y="-15.3" font-family="Gill Sans" font-size="14.00"> &#160;commit</text>
</g>
</g>
</svg>
