<?xml version="1.0" encoding="UTF-8" standalone="no"?>
<!DOCTYPE svg PUBLIC "-//W3C//DTD SVG 1.1//EN"
 "http://www.w3.org/Graphics/SVG/1.1/DTD/svg11.dtd">
<!-- Generated by graphviz version 2.43.0 (0)
 -->
<!-- Title: G Pages: 1 -->
<svg width="248pt" height="44pt"
 viewBox="0.00 0.00 248.00 44.00" xmlns="http://www.w3.org/2000/svg" xmlns:xlink="http://www.w3.org/1999/xlink">
<g id="graph0" class="graph" transform="scale(1 1) rotate(0) translate(4 40)">
<title>G</title>
<polygon fill="white" stroke="transparent" points="-4,4 -4,-40 244,-40 244,4 -4,4"/>
<!-- stap1 -->
<g id="node1" class="node">
<title>stap1</title>
<polygon fill="none" stroke="blue" points="56,-36 0,-36 0,0 56,0 56,-36"/>
<text text-anchor="middle" x="28" y="-14.3" font-family="Times,serif" font-size="14.00">stap1</text>
</g>
<!-- stap2 -->
<g id="node2" class="node">
<title>stap2</title>
<polygon fill="none" stroke="blue" points="148,-36 92,-36 92,0 148,0 148,-36"/>
<text text-anchor="middle" x="120" y="-14.3" font-family="Times,serif" font-size="14.00">stap2</text>
</g>
<!-- stap1&#45;&gt;stap2 -->
<g id="edge1" class="edge">
<title>stap1&#45;&gt;stap2</title>
<path fill="none" stroke="black" d="M56,-18C64.03,-18 72.97,-18 81.53,-18"/>
<polygon fill="black" stroke="black" points="81.71,-21.5 91.71,-18 81.7,-14.5 81.71,-21.5"/>
</g>
<!-- stap3 -->
<g id="node3" class="node">
<title>stap3</title>
<polygon fill="none" stroke="blue" points="240,-36 184,-36 184,0 240,0 240,-36"/>
<text text-anchor="middle" x="212" y="-14.3" font-family="Times,serif" font-size="14.00">stap3</text>
</g>
<!-- stap2&#45;&gt;stap3 -->
<g id="edge2" class="edge">
<title>stap2&#45;&gt;stap3</title>
<path fill="none" stroke="black" d="M148,-18C156.03,-18 164.97,-18 173.53,-18"/>
<polygon fill="black" stroke="black" points="173.71,-21.5 183.71,-18 173.7,-14.5 173.71,-21.5"/>
</g>
</g>
</svg>
